<mxfile host="Electron" agent="Mozilla/5.0 (X11; Linux x86_64) AppleWebKit/537.36 (KHTML, like Gecko) draw.io/24.7.5 Chrome/126.0.6478.183 Electron/31.3.0 Safari/537.36" version="24.7.5" pages="8">
  <diagram name="Page-1" id="yfhviqjyw5GSRYQB0bxj">
    <mxGraphModel dx="477" dy="479" grid="1" gridSize="5" guides="1" tooltips="1" connect="1" arrows="1" fold="1" page="1" pageScale="1" pageWidth="827" pageHeight="1169" math="1" shadow="0">
      <root>
        <mxCell id="0" />
        <mxCell id="1" parent="0" />
        <mxCell id="PiUlT12rA_tVYq5L-w_3-2" style="edgeStyle=orthogonalEdgeStyle;rounded=0;orthogonalLoop=1;jettySize=auto;html=1;exitX=0.17;exitY=1;exitDx=0;exitDy=0;exitPerimeter=0;strokeWidth=2;" edge="1" parent="1" source="PiUlT12rA_tVYq5L-w_3-1">
          <mxGeometry relative="1" as="geometry">
            <mxPoint x="380.3888888888889" y="480" as="targetPoint" />
          </mxGeometry>
        </mxCell>
        <mxCell id="PiUlT12rA_tVYq5L-w_3-3" style="edgeStyle=orthogonalEdgeStyle;rounded=0;orthogonalLoop=1;jettySize=auto;html=1;exitX=0.67;exitY=1;exitDx=0;exitDy=0;exitPerimeter=0;strokeColor=default;strokeWidth=2;align=center;verticalAlign=middle;fontFamily=Helvetica;fontSize=11;fontColor=default;labelBackgroundColor=default;endArrow=classic;" edge="1" parent="1" source="PiUlT12rA_tVYq5L-w_3-1">
          <mxGeometry relative="1" as="geometry">
            <mxPoint x="440.3888888888889" y="480" as="targetPoint" />
          </mxGeometry>
        </mxCell>
        <mxCell id="PiUlT12rA_tVYq5L-w_3-4" style="edgeStyle=orthogonalEdgeStyle;shape=connector;rounded=0;orthogonalLoop=1;jettySize=auto;html=1;exitX=0.83;exitY=1;exitDx=0;exitDy=0;exitPerimeter=0;strokeColor=default;strokeWidth=2;align=center;verticalAlign=middle;fontFamily=Helvetica;fontSize=11;fontColor=default;labelBackgroundColor=default;endArrow=classic;" edge="1" parent="1" source="PiUlT12rA_tVYq5L-w_3-1">
          <mxGeometry relative="1" as="geometry">
            <mxPoint x="459.55555555555554" y="480" as="targetPoint" />
          </mxGeometry>
        </mxCell>
        <mxCell id="PiUlT12rA_tVYq5L-w_3-5" style="edgeStyle=orthogonalEdgeStyle;shape=connector;rounded=0;orthogonalLoop=1;jettySize=auto;html=1;exitX=0.17;exitY=0;exitDx=0;exitDy=0;exitPerimeter=0;strokeColor=default;strokeWidth=2;align=center;verticalAlign=middle;fontFamily=Helvetica;fontSize=11;fontColor=default;labelBackgroundColor=default;endArrow=classic;entryX=0.17;entryY=0;entryDx=0;entryDy=0;entryPerimeter=0;" edge="1" parent="1" target="PiUlT12rA_tVYq5L-w_3-1">
          <mxGeometry relative="1" as="geometry">
            <mxPoint x="380.3888888888889" y="380" as="sourcePoint" />
          </mxGeometry>
        </mxCell>
        <mxCell id="PiUlT12rA_tVYq5L-w_3-6" style="edgeStyle=orthogonalEdgeStyle;shape=connector;rounded=0;orthogonalLoop=1;jettySize=auto;html=1;exitX=0.67;exitY=0;exitDx=0;exitDy=0;exitPerimeter=0;strokeColor=default;strokeWidth=2;align=center;verticalAlign=middle;fontFamily=Helvetica;fontSize=11;fontColor=default;labelBackgroundColor=default;endArrow=classic;entryX=0.67;entryY=0;entryDx=0;entryDy=0;entryPerimeter=0;" edge="1" parent="1" target="PiUlT12rA_tVYq5L-w_3-1">
          <mxGeometry relative="1" as="geometry">
            <mxPoint x="440.3888888888889" y="380" as="sourcePoint" />
          </mxGeometry>
        </mxCell>
        <mxCell id="PiUlT12rA_tVYq5L-w_3-7" style="edgeStyle=orthogonalEdgeStyle;shape=connector;rounded=0;orthogonalLoop=1;jettySize=auto;html=1;exitX=0.83;exitY=0;exitDx=0;exitDy=0;exitPerimeter=0;strokeColor=default;strokeWidth=2;align=center;verticalAlign=middle;fontFamily=Helvetica;fontSize=11;fontColor=default;labelBackgroundColor=default;endArrow=classic;entryX=0.83;entryY=0;entryDx=0;entryDy=0;entryPerimeter=0;" edge="1" parent="1" target="PiUlT12rA_tVYq5L-w_3-1">
          <mxGeometry relative="1" as="geometry">
            <mxPoint x="459.55555555555554" y="380" as="sourcePoint" />
          </mxGeometry>
        </mxCell>
        <mxCell id="PiUlT12rA_tVYq5L-w_3-1" value="" style="rounded=1;whiteSpace=wrap;html=1;fillColor=#7EA6E0;strokeWidth=2;points=[[0.17,0,0,0,0],[0.17,1,0,0,0],[0.33,0,0,0,0],[0.33,1,0,0,0],[0.5,0,0,0,0],[0.5,1,0,0,0],[0.67,0,0,0,0],[0.67,1,0,0,0],[0.83,0,0,0,0],[0.83,1,0,0,0]];" vertex="1" parent="1">
          <mxGeometry x="360" y="400" width="120" height="60" as="geometry" />
        </mxCell>
        <mxCell id="PiUlT12rA_tVYq5L-w_3-8" value="$$\cdots$$" style="text;html=1;align=center;verticalAlign=middle;resizable=0;points=[];autosize=1;strokeColor=none;fillColor=none;fontFamily=Helvetica;fontSize=11;fontColor=default;labelBackgroundColor=none;" vertex="1" parent="1">
          <mxGeometry x="370" y="375" width="75" height="30" as="geometry" />
        </mxCell>
        <mxCell id="PiUlT12rA_tVYq5L-w_3-9" value="$$\cdots$$" style="text;html=1;align=center;verticalAlign=middle;resizable=0;points=[];autosize=1;strokeColor=none;fillColor=none;fontFamily=Helvetica;fontSize=11;fontColor=default;labelBackgroundColor=none;" vertex="1" parent="1">
          <mxGeometry x="370" y="455" width="75" height="30" as="geometry" />
        </mxCell>
      </root>
    </mxGraphModel>
  </diagram>
  <diagram id="EuR9rJr0UpHzjGwJZewZ" name="Page-2">
    <mxGraphModel dx="398" dy="399" grid="1" gridSize="5" guides="1" tooltips="1" connect="1" arrows="1" fold="1" page="1" pageScale="1" pageWidth="827" pageHeight="1169" math="1" shadow="0">
      <root>
        <mxCell id="0" />
        <mxCell id="1" parent="0" />
        <mxCell id="neylguYoI4TUpXD-tj6q-1" style="edgeStyle=orthogonalEdgeStyle;rounded=0;orthogonalLoop=1;jettySize=auto;html=1;exitX=0.17;exitY=1;exitDx=0;exitDy=0;exitPerimeter=0;strokeWidth=2;" edge="1" parent="1" source="neylguYoI4TUpXD-tj6q-7">
          <mxGeometry relative="1" as="geometry">
            <mxPoint x="380.3888888888889" y="480" as="targetPoint" />
          </mxGeometry>
        </mxCell>
        <mxCell id="neylguYoI4TUpXD-tj6q-2" style="edgeStyle=orthogonalEdgeStyle;rounded=0;orthogonalLoop=1;jettySize=auto;html=1;exitX=0.67;exitY=1;exitDx=0;exitDy=0;exitPerimeter=0;strokeColor=default;strokeWidth=2;align=center;verticalAlign=middle;fontFamily=Helvetica;fontSize=11;fontColor=default;labelBackgroundColor=default;endArrow=classic;" edge="1" parent="1" source="neylguYoI4TUpXD-tj6q-7">
          <mxGeometry relative="1" as="geometry">
            <mxPoint x="440.3888888888889" y="480" as="targetPoint" />
          </mxGeometry>
        </mxCell>
        <mxCell id="neylguYoI4TUpXD-tj6q-3" style="edgeStyle=orthogonalEdgeStyle;shape=connector;rounded=1;orthogonalLoop=1;jettySize=auto;html=1;exitX=0.83;exitY=1;exitDx=0;exitDy=0;exitPerimeter=0;strokeColor=default;strokeWidth=2;align=center;verticalAlign=middle;fontFamily=Helvetica;fontSize=11;fontColor=default;labelBackgroundColor=default;endArrow=classic;curved=0;" edge="1" parent="1" source="neylguYoI4TUpXD-tj6q-7">
          <mxGeometry relative="1" as="geometry">
            <mxPoint x="490" y="380" as="targetPoint" />
            <Array as="points">
              <mxPoint x="460" y="480" />
              <mxPoint x="490" y="480" />
              <mxPoint x="490" y="380" />
            </Array>
          </mxGeometry>
        </mxCell>
        <mxCell id="neylguYoI4TUpXD-tj6q-4" style="edgeStyle=orthogonalEdgeStyle;shape=connector;rounded=0;orthogonalLoop=1;jettySize=auto;html=1;exitX=0.17;exitY=0;exitDx=0;exitDy=0;exitPerimeter=0;strokeColor=default;strokeWidth=2;align=center;verticalAlign=middle;fontFamily=Helvetica;fontSize=11;fontColor=default;labelBackgroundColor=default;endArrow=classic;entryX=0.17;entryY=0;entryDx=0;entryDy=0;entryPerimeter=0;" edge="1" parent="1" target="neylguYoI4TUpXD-tj6q-7">
          <mxGeometry relative="1" as="geometry">
            <mxPoint x="380.3888888888889" y="380" as="sourcePoint" />
          </mxGeometry>
        </mxCell>
        <mxCell id="neylguYoI4TUpXD-tj6q-5" style="edgeStyle=orthogonalEdgeStyle;shape=connector;rounded=0;orthogonalLoop=1;jettySize=auto;html=1;exitX=0.67;exitY=0;exitDx=0;exitDy=0;exitPerimeter=0;strokeColor=default;strokeWidth=2;align=center;verticalAlign=middle;fontFamily=Helvetica;fontSize=11;fontColor=default;labelBackgroundColor=default;endArrow=classic;entryX=0.67;entryY=0;entryDx=0;entryDy=0;entryPerimeter=0;" edge="1" parent="1" target="neylguYoI4TUpXD-tj6q-7">
          <mxGeometry relative="1" as="geometry">
            <mxPoint x="440.3888888888889" y="380" as="sourcePoint" />
          </mxGeometry>
        </mxCell>
        <mxCell id="neylguYoI4TUpXD-tj6q-6" style="edgeStyle=orthogonalEdgeStyle;shape=connector;rounded=0;orthogonalLoop=1;jettySize=auto;html=1;exitX=0.83;exitY=0;exitDx=0;exitDy=0;exitPerimeter=0;strokeColor=default;strokeWidth=2;align=center;verticalAlign=middle;fontFamily=Helvetica;fontSize=11;fontColor=default;labelBackgroundColor=default;endArrow=classic;entryX=0.83;entryY=0;entryDx=0;entryDy=0;entryPerimeter=0;" edge="1" parent="1" target="neylguYoI4TUpXD-tj6q-7">
          <mxGeometry relative="1" as="geometry">
            <mxPoint x="459.55555555555554" y="380" as="sourcePoint" />
          </mxGeometry>
        </mxCell>
        <mxCell id="neylguYoI4TUpXD-tj6q-7" value="" style="rounded=1;whiteSpace=wrap;html=1;fillColor=#7EA6E0;strokeWidth=2;points=[[0.17,0,0,0,0],[0.17,1,0,0,0],[0.33,0,0,0,0],[0.33,1,0,0,0],[0.5,0,0,0,0],[0.5,1,0,0,0],[0.67,0,0,0,0],[0.67,1,0,0,0],[0.83,0,0,0,0],[0.83,1,0,0,0]];" vertex="1" parent="1">
          <mxGeometry x="360" y="400" width="120" height="60" as="geometry" />
        </mxCell>
        <mxCell id="neylguYoI4TUpXD-tj6q-8" value="$$\cdots$$" style="text;html=1;align=center;verticalAlign=middle;resizable=0;points=[];autosize=1;strokeColor=none;fillColor=none;fontFamily=Helvetica;fontSize=11;fontColor=default;labelBackgroundColor=none;" vertex="1" parent="1">
          <mxGeometry x="370" y="375" width="75" height="30" as="geometry" />
        </mxCell>
        <mxCell id="neylguYoI4TUpXD-tj6q-9" value="$$\cdots$$" style="text;html=1;align=center;verticalAlign=middle;resizable=0;points=[];autosize=1;strokeColor=none;fillColor=none;fontFamily=Helvetica;fontSize=11;fontColor=default;labelBackgroundColor=none;" vertex="1" parent="1">
          <mxGeometry x="370" y="455" width="75" height="30" as="geometry" />
        </mxCell>
      </root>
    </mxGraphModel>
  </diagram>
  <diagram id="At2QDFjVqLGQNjYmtaO1" name="Page-3">
    <mxGraphModel dx="192" dy="193" grid="1" gridSize="5" guides="1" tooltips="1" connect="1" arrows="1" fold="1" page="1" pageScale="1" pageWidth="827" pageHeight="1169" math="1" shadow="0">
      <root>
        <mxCell id="0" />
        <mxCell id="1" parent="0" />
        <mxCell id="p7tX2SCMchugf2LYKnCU-1" style="edgeStyle=orthogonalEdgeStyle;rounded=0;orthogonalLoop=1;jettySize=auto;html=1;exitX=0.17;exitY=1;exitDx=0;exitDy=0;exitPerimeter=0;strokeWidth=2;" edge="1" parent="1" source="p7tX2SCMchugf2LYKnCU-7">
          <mxGeometry relative="1" as="geometry">
            <mxPoint x="380.3888888888889" y="480" as="targetPoint" />
          </mxGeometry>
        </mxCell>
        <mxCell id="p7tX2SCMchugf2LYKnCU-11" style="edgeStyle=orthogonalEdgeStyle;shape=connector;rounded=0;orthogonalLoop=1;jettySize=auto;html=1;exitX=0.83;exitY=0;exitDx=0;exitDy=0;exitPerimeter=0;strokeColor=default;strokeWidth=2;align=center;verticalAlign=middle;fontFamily=Helvetica;fontSize=11;fontColor=default;labelBackgroundColor=default;endArrow=classic;" edge="1" parent="1" source="p7tX2SCMchugf2LYKnCU-7">
          <mxGeometry relative="1" as="geometry">
            <mxPoint x="476.2558139534884" y="380" as="targetPoint" />
          </mxGeometry>
        </mxCell>
        <mxCell id="p7tX2SCMchugf2LYKnCU-12" style="edgeStyle=orthogonalEdgeStyle;shape=connector;rounded=0;orthogonalLoop=1;jettySize=auto;html=1;exitX=0.5;exitY=0;exitDx=0;exitDy=0;exitPerimeter=0;strokeColor=default;strokeWidth=2;align=center;verticalAlign=middle;fontFamily=Helvetica;fontSize=11;fontColor=default;labelBackgroundColor=default;endArrow=classic;entryX=0.5;entryY=0;entryDx=0;entryDy=0;entryPerimeter=0;" edge="1" parent="1" target="p7tX2SCMchugf2LYKnCU-7">
          <mxGeometry relative="1" as="geometry">
            <mxPoint x="429.9767441860465" y="380" as="sourcePoint" />
          </mxGeometry>
        </mxCell>
        <mxCell id="p7tX2SCMchugf2LYKnCU-15" style="edgeStyle=orthogonalEdgeStyle;shape=connector;rounded=0;orthogonalLoop=1;jettySize=auto;html=1;exitX=0.67;exitY=0;exitDx=0;exitDy=0;exitPerimeter=0;strokeColor=default;strokeWidth=2;align=center;verticalAlign=middle;fontFamily=Helvetica;fontSize=11;fontColor=default;labelBackgroundColor=default;endArrow=classic;entryX=0.67;entryY=0;entryDx=0;entryDy=0;entryPerimeter=0;" edge="1" parent="1" target="p7tX2SCMchugf2LYKnCU-7">
          <mxGeometry relative="1" as="geometry">
            <mxPoint x="453.766355140187" y="380" as="sourcePoint" />
          </mxGeometry>
        </mxCell>
        <mxCell id="p7tX2SCMchugf2LYKnCU-16" style="edgeStyle=orthogonalEdgeStyle;shape=connector;rounded=0;orthogonalLoop=1;jettySize=auto;html=1;exitX=0.17;exitY=0;exitDx=0;exitDy=0;exitPerimeter=0;strokeColor=default;strokeWidth=2;align=center;verticalAlign=middle;fontFamily=Helvetica;fontSize=11;fontColor=default;labelBackgroundColor=default;endArrow=classic;entryX=0.17;entryY=0;entryDx=0;entryDy=0;entryPerimeter=0;" edge="1" parent="1" target="p7tX2SCMchugf2LYKnCU-7">
          <mxGeometry relative="1" as="geometry">
            <mxPoint x="383.8064516129032" y="380" as="sourcePoint" />
          </mxGeometry>
        </mxCell>
        <mxCell id="p7tX2SCMchugf2LYKnCU-19" style="edgeStyle=orthogonalEdgeStyle;shape=connector;rounded=0;orthogonalLoop=1;jettySize=auto;html=1;exitX=0.5;exitY=1;exitDx=0;exitDy=0;exitPerimeter=0;strokeColor=default;strokeWidth=2;align=center;verticalAlign=middle;fontFamily=Helvetica;fontSize=11;fontColor=default;labelBackgroundColor=default;endArrow=classic;" edge="1" parent="1" source="p7tX2SCMchugf2LYKnCU-7">
          <mxGeometry relative="1" as="geometry">
            <mxPoint x="430" y="480" as="targetPoint" />
          </mxGeometry>
        </mxCell>
        <mxCell id="p7tX2SCMchugf2LYKnCU-7" value="" style="rounded=1;whiteSpace=wrap;html=1;fillColor=#d5e8d4;strokeWidth=2;points=[[0.17,0,0,0,0],[0.17,1,0,0,0],[0.33,0,0,0,0],[0.33,1,0,0,0],[0.5,0,0,0,0],[0.5,1,0,0,0],[0.67,0,0,0,0],[0.67,1,0,0,0],[0.83,0,0,0,0],[0.83,1,0,0,0]];strokeColor=#82b366;" vertex="1" parent="1">
          <mxGeometry x="360" y="400" width="140" height="60" as="geometry" />
        </mxCell>
        <mxCell id="p7tX2SCMchugf2LYKnCU-8" value="$$\cdots$$" style="text;html=1;align=center;verticalAlign=middle;resizable=0;points=[];autosize=1;strokeColor=none;fillColor=none;fontFamily=Helvetica;fontSize=11;fontColor=default;labelBackgroundColor=none;" vertex="1" parent="1">
          <mxGeometry x="365" y="375" width="75" height="30" as="geometry" />
        </mxCell>
        <mxCell id="p7tX2SCMchugf2LYKnCU-9" value="$$\cdots$$" style="text;html=1;align=center;verticalAlign=middle;resizable=0;points=[];autosize=1;strokeColor=none;fillColor=none;fontFamily=Helvetica;fontSize=11;fontColor=default;labelBackgroundColor=none;" vertex="1" parent="1">
          <mxGeometry x="365" y="455" width="75" height="30" as="geometry" />
        </mxCell>
      </root>
    </mxGraphModel>
  </diagram>
  <diagram id="8oBxnDz-2dm2HQFDRHO3" name="Page-4">
    <mxGraphModel dx="475" dy="267" grid="1" gridSize="10" guides="1" tooltips="1" connect="1" arrows="1" fold="1" page="1" pageScale="1" pageWidth="827" pageHeight="1169" math="1" shadow="0">
      <root>
        <mxCell id="0" />
        <mxCell id="1" parent="0" />
        <mxCell id="Xo8Tnvdq4oubc3hMnSln-4" style="edgeStyle=orthogonalEdgeStyle;shape=connector;rounded=0;orthogonalLoop=1;jettySize=auto;html=1;exitX=0.17;exitY=0;exitDx=0;exitDy=0;exitPerimeter=0;strokeColor=default;strokeWidth=2;align=center;verticalAlign=middle;fontFamily=Helvetica;fontSize=11;fontColor=default;labelBackgroundColor=default;endArrow=classic;entryX=0.17;entryY=0;entryDx=0;entryDy=0;entryPerimeter=0;" edge="1" parent="1" target="Xo8Tnvdq4oubc3hMnSln-7">
          <mxGeometry relative="1" as="geometry">
            <mxPoint x="380.3888888888889" y="380" as="sourcePoint" />
          </mxGeometry>
        </mxCell>
        <mxCell id="Xo8Tnvdq4oubc3hMnSln-5" style="edgeStyle=orthogonalEdgeStyle;shape=connector;rounded=0;orthogonalLoop=1;jettySize=auto;html=1;exitX=0.67;exitY=0;exitDx=0;exitDy=0;exitPerimeter=0;strokeColor=default;strokeWidth=2;align=center;verticalAlign=middle;fontFamily=Helvetica;fontSize=11;fontColor=default;labelBackgroundColor=default;endArrow=classic;entryX=0.67;entryY=0;entryDx=0;entryDy=0;entryPerimeter=0;" edge="1" parent="1" target="Xo8Tnvdq4oubc3hMnSln-7">
          <mxGeometry relative="1" as="geometry">
            <mxPoint x="440.3888888888889" y="380" as="sourcePoint" />
          </mxGeometry>
        </mxCell>
        <mxCell id="Xo8Tnvdq4oubc3hMnSln-6" style="edgeStyle=orthogonalEdgeStyle;shape=connector;rounded=0;orthogonalLoop=1;jettySize=auto;html=1;exitX=0.83;exitY=0;exitDx=0;exitDy=0;exitPerimeter=0;strokeColor=default;strokeWidth=2;align=center;verticalAlign=middle;fontFamily=Helvetica;fontSize=11;fontColor=default;labelBackgroundColor=default;endArrow=classic;entryX=0.83;entryY=0;entryDx=0;entryDy=0;entryPerimeter=0;" edge="1" parent="1" target="Xo8Tnvdq4oubc3hMnSln-7">
          <mxGeometry relative="1" as="geometry">
            <mxPoint x="459.55555555555554" y="380" as="sourcePoint" />
          </mxGeometry>
        </mxCell>
        <mxCell id="Xo8Tnvdq4oubc3hMnSln-10" style="edgeStyle=orthogonalEdgeStyle;rounded=0;orthogonalLoop=1;jettySize=auto;html=1;exitX=0.5;exitY=1;exitDx=0;exitDy=0;exitPerimeter=0;strokeColor=default;strokeWidth=2;align=center;verticalAlign=middle;fontFamily=Helvetica;fontSize=11;fontColor=default;labelBackgroundColor=default;endArrow=classic;" edge="1" parent="1" source="Xo8Tnvdq4oubc3hMnSln-7">
          <mxGeometry relative="1" as="geometry">
            <mxPoint x="420.0769230769231" y="480" as="targetPoint" />
          </mxGeometry>
        </mxCell>
        <mxCell id="Xo8Tnvdq4oubc3hMnSln-7" value="" style="rounded=1;whiteSpace=wrap;html=1;fillColor=#7EA6E0;strokeWidth=2;points=[[0.17,0,0,0,0],[0.17,1,0,0,0],[0.33,0,0,0,0],[0.33,1,0,0,0],[0.5,0,0,0,0],[0.5,1,0,0,0],[0.67,0,0,0,0],[0.67,1,0,0,0],[0.83,0,0,0,0],[0.83,1,0,0,0]];" vertex="1" parent="1">
          <mxGeometry x="360" y="400" width="120" height="60" as="geometry" />
        </mxCell>
        <mxCell id="Xo8Tnvdq4oubc3hMnSln-8" value="$$\cdots$$" style="text;html=1;align=center;verticalAlign=middle;resizable=0;points=[];autosize=1;strokeColor=none;fillColor=none;fontFamily=Helvetica;fontSize=11;fontColor=default;labelBackgroundColor=none;" vertex="1" parent="1">
          <mxGeometry x="370" y="375" width="75" height="30" as="geometry" />
        </mxCell>
      </root>
    </mxGraphModel>
  </diagram>
  <diagram id="R4ejt5yXChd95usc3V_k" name="Page-5">
    <mxGraphModel dx="330" dy="185" grid="1" gridSize="10" guides="1" tooltips="1" connect="1" arrows="1" fold="1" page="1" pageScale="1" pageWidth="827" pageHeight="1169" math="1" shadow="0">
      <root>
        <mxCell id="0" />
        <mxCell id="1" parent="0" />
        <mxCell id="cPKcKCeHd6aTYcS5XOba-1" style="edgeStyle=orthogonalEdgeStyle;shape=connector;rounded=0;orthogonalLoop=1;jettySize=auto;html=1;exitX=0.17;exitY=0;exitDx=0;exitDy=0;exitPerimeter=0;strokeColor=default;strokeWidth=2;align=center;verticalAlign=middle;fontFamily=Helvetica;fontSize=11;fontColor=default;labelBackgroundColor=default;endArrow=classic;entryX=0.17;entryY=0;entryDx=0;entryDy=0;entryPerimeter=0;" edge="1" parent="1" target="cPKcKCeHd6aTYcS5XOba-5">
          <mxGeometry relative="1" as="geometry">
            <mxPoint x="380.3888888888889" y="380" as="sourcePoint" />
          </mxGeometry>
        </mxCell>
        <mxCell id="cPKcKCeHd6aTYcS5XOba-2" style="edgeStyle=orthogonalEdgeStyle;shape=connector;rounded=0;orthogonalLoop=1;jettySize=auto;html=1;exitX=0.67;exitY=0;exitDx=0;exitDy=0;exitPerimeter=0;strokeColor=default;strokeWidth=2;align=center;verticalAlign=middle;fontFamily=Helvetica;fontSize=11;fontColor=default;labelBackgroundColor=default;endArrow=classic;entryX=0.67;entryY=0;entryDx=0;entryDy=0;entryPerimeter=0;" edge="1" parent="1" target="cPKcKCeHd6aTYcS5XOba-5">
          <mxGeometry relative="1" as="geometry">
            <mxPoint x="440.3888888888889" y="380" as="sourcePoint" />
          </mxGeometry>
        </mxCell>
        <mxCell id="cPKcKCeHd6aTYcS5XOba-4" style="edgeStyle=orthogonalEdgeStyle;rounded=1;orthogonalLoop=1;jettySize=auto;html=1;exitX=0.5;exitY=1;exitDx=0;exitDy=0;exitPerimeter=0;strokeColor=default;strokeWidth=2;align=center;verticalAlign=middle;fontFamily=Helvetica;fontSize=11;fontColor=default;labelBackgroundColor=default;endArrow=classic;entryX=0.83;entryY=0;entryDx=0;entryDy=0;entryPerimeter=0;curved=0;" edge="1" parent="1" source="cPKcKCeHd6aTYcS5XOba-5" target="cPKcKCeHd6aTYcS5XOba-5">
          <mxGeometry relative="1" as="geometry">
            <mxPoint x="470" y="380" as="targetPoint" />
            <Array as="points">
              <mxPoint x="420" y="470" />
              <mxPoint x="490" y="470" />
              <mxPoint x="490" y="380" />
              <mxPoint x="460" y="380" />
            </Array>
          </mxGeometry>
        </mxCell>
        <mxCell id="cPKcKCeHd6aTYcS5XOba-5" value="" style="rounded=1;whiteSpace=wrap;html=1;fillColor=#7EA6E0;strokeWidth=2;points=[[0.17,0,0,0,0],[0.17,1,0,0,0],[0.33,0,0,0,0],[0.33,1,0,0,0],[0.5,0,0,0,0],[0.5,1,0,0,0],[0.67,0,0,0,0],[0.67,1,0,0,0],[0.83,0,0,0,0],[0.83,1,0,0,0]];" vertex="1" parent="1">
          <mxGeometry x="360" y="400" width="120" height="60" as="geometry" />
        </mxCell>
        <mxCell id="cPKcKCeHd6aTYcS5XOba-6" value="$$\cdots$$" style="text;html=1;align=center;verticalAlign=middle;resizable=0;points=[];autosize=1;strokeColor=none;fillColor=none;fontFamily=Helvetica;fontSize=11;fontColor=default;labelBackgroundColor=none;" vertex="1" parent="1">
          <mxGeometry x="370" y="375" width="75" height="30" as="geometry" />
        </mxCell>
      </root>
    </mxGraphModel>
  </diagram>
  <diagram id="Y5gEf1uYZ-PegH2DiDj4" name="Page-6">
    <mxGraphModel dx="330" dy="185" grid="1" gridSize="10" guides="1" tooltips="1" connect="1" arrows="1" fold="1" page="1" pageScale="1" pageWidth="827" pageHeight="1169" math="1" shadow="0">
      <root>
        <mxCell id="0" />
        <mxCell id="1" parent="0" />
        <mxCell id="zV7pxfhDamZgih1GwbKs-8" style="edgeStyle=orthogonalEdgeStyle;shape=connector;rounded=0;orthogonalLoop=1;jettySize=auto;html=1;exitX=0.83;exitY=0;exitDx=0;exitDy=0;exitPerimeter=0;strokeColor=default;align=center;verticalAlign=middle;fontFamily=Helvetica;fontSize=11;fontColor=default;labelBackgroundColor=default;endArrow=classic;strokeWidth=2;entryX=0.83;entryY=0;entryDx=0;entryDy=0;entryPerimeter=0;" edge="1" parent="1" target="zV7pxfhDamZgih1GwbKs-5">
          <mxGeometry relative="1" as="geometry">
            <mxPoint x="426.3888888888889" y="380" as="sourcePoint" />
          </mxGeometry>
        </mxCell>
        <mxCell id="zV7pxfhDamZgih1GwbKs-9" style="edgeStyle=orthogonalEdgeStyle;shape=connector;rounded=0;orthogonalLoop=1;jettySize=auto;html=1;exitX=0.17;exitY=0;exitDx=0;exitDy=0;exitPerimeter=0;strokeColor=default;strokeWidth=2;align=center;verticalAlign=middle;fontFamily=Helvetica;fontSize=11;fontColor=default;labelBackgroundColor=default;endArrow=classic;entryX=0.17;entryY=0;entryDx=0;entryDy=0;entryPerimeter=0;" edge="1" parent="1" target="zV7pxfhDamZgih1GwbKs-5">
          <mxGeometry relative="1" as="geometry">
            <mxPoint x="373.6111111111111" y="380" as="sourcePoint" />
          </mxGeometry>
        </mxCell>
        <mxCell id="zV7pxfhDamZgih1GwbKs-10" style="edgeStyle=orthogonalEdgeStyle;shape=connector;rounded=0;orthogonalLoop=1;jettySize=auto;html=1;exitX=0.5;exitY=1;exitDx=0;exitDy=0;exitPerimeter=0;strokeColor=none;strokeWidth=2;align=center;verticalAlign=middle;fontFamily=Helvetica;fontSize=11;fontColor=default;labelBackgroundColor=default;endArrow=classic;" edge="1" parent="1" source="zV7pxfhDamZgih1GwbKs-5">
          <mxGeometry relative="1" as="geometry">
            <mxPoint x="400" y="480" as="targetPoint" />
          </mxGeometry>
        </mxCell>
        <mxCell id="zV7pxfhDamZgih1GwbKs-5" value="" style="rounded=1;whiteSpace=wrap;html=1;fillColor=#d5e8d4;strokeWidth=2;points=[[0.17,0,0,0,0],[0.17,1,0,0,0],[0.33,0,0,0,0],[0.33,1,0,0,0],[0.5,0,0,0,0],[0.5,1,0,0,0],[0.67,0,0,0,0],[0.67,1,0,0,0],[0.83,0,0,0,0],[0.83,1,0,0,0]];strokeColor=#82b366;" vertex="1" parent="1">
          <mxGeometry x="360" y="400" width="80" height="60" as="geometry" />
        </mxCell>
        <mxCell id="zV7pxfhDamZgih1GwbKs-6" value="$$\cdots$$" style="text;html=1;align=center;verticalAlign=middle;resizable=0;points=[];autosize=1;strokeColor=none;fillColor=none;fontFamily=Helvetica;fontSize=11;fontColor=default;labelBackgroundColor=none;" vertex="1" parent="1">
          <mxGeometry x="362.5" y="370" width="75" height="30" as="geometry" />
        </mxCell>
      </root>
    </mxGraphModel>
  </diagram>
  <diagram id="GrcD5NP34gsEW1zkyOKG" name="Page-7">
    <mxGraphModel dx="270" dy="152" grid="1" gridSize="5" guides="1" tooltips="1" connect="1" arrows="1" fold="1" page="1" pageScale="1" pageWidth="827" pageHeight="1169" math="0" shadow="0">
      <root>
        <mxCell id="0" />
        <mxCell id="1" parent="0" />
        <mxCell id="Jy4qY7K2AWNkpZpbRgaD-1" style="edgeStyle=orthogonalEdgeStyle;curved=1;rounded=0;orthogonalLoop=1;jettySize=auto;html=1;strokeColor=default;strokeWidth=2;align=center;verticalAlign=middle;fontFamily=Helvetica;fontSize=12;fontColor=default;labelBackgroundColor=default;endArrow=none;endFill=0;exitX=0.5;exitY=1;exitDx=0;exitDy=0;" edge="1" parent="1" source="Jy4qY7K2AWNkpZpbRgaD-4">
          <mxGeometry relative="1" as="geometry">
            <mxPoint x="410" y="322" as="targetPoint" />
            <mxPoint x="410" y="300" as="sourcePoint" />
          </mxGeometry>
        </mxCell>
        <mxCell id="Jy4qY7K2AWNkpZpbRgaD-2" value="" style="rounded=1;whiteSpace=wrap;html=1;fontFamily=Helvetica;fontSize=12;labelBackgroundColor=default;strokeWidth=2;align=center;verticalAlign=middle;fillColor=#7EA6E0;" vertex="1" parent="1">
          <mxGeometry x="390" y="322" width="40" height="40" as="geometry" />
        </mxCell>
        <mxCell id="Jy4qY7K2AWNkpZpbRgaD-3" style="edgeStyle=orthogonalEdgeStyle;curved=1;rounded=0;orthogonalLoop=1;jettySize=auto;html=1;exitX=0.5;exitY=1;exitDx=0;exitDy=0;entryX=0.502;entryY=0.047;entryDx=0;entryDy=0;strokeColor=default;strokeWidth=2;align=center;verticalAlign=middle;fontFamily=Helvetica;fontSize=12;fontColor=default;labelBackgroundColor=default;endArrow=none;endFill=0;entryPerimeter=0;" edge="1" source="Jy4qY7K2AWNkpZpbRgaD-2" parent="1">
          <mxGeometry relative="1" as="geometry">
            <mxPoint x="410" y="384" as="targetPoint" />
          </mxGeometry>
        </mxCell>
        <mxCell id="Jy4qY7K2AWNkpZpbRgaD-5" style="edgeStyle=orthogonalEdgeStyle;rounded=1;orthogonalLoop=1;jettySize=auto;html=1;exitX=0.5;exitY=0;exitDx=0;exitDy=0;strokeColor=#b85450;strokeWidth=1;align=center;verticalAlign=middle;fontFamily=Helvetica;fontSize=12;fontColor=default;labelBackgroundColor=default;endArrow=none;endFill=0;curved=0;fillColor=#f8cecc;" edge="1" parent="1" source="Jy4qY7K2AWNkpZpbRgaD-4">
          <mxGeometry relative="1" as="geometry">
            <mxPoint x="410" y="275.0047796863331" as="targetPoint" />
            <Array as="points">
              <mxPoint x="410" y="288.6" />
              <mxPoint x="411" y="288.6" />
              <mxPoint x="411" y="286.6" />
              <mxPoint x="409" y="286.6" />
              <mxPoint x="409" y="284.6" />
              <mxPoint x="411" y="284.6" />
              <mxPoint x="411" y="282.6" />
              <mxPoint x="409" y="282.6" />
              <mxPoint x="409" y="280.6" />
              <mxPoint x="411" y="280.6" />
              <mxPoint x="411" y="278.6" />
              <mxPoint x="409" y="278.6" />
              <mxPoint x="410" y="277.6" />
            </Array>
          </mxGeometry>
        </mxCell>
        <mxCell id="Jy4qY7K2AWNkpZpbRgaD-4" value="" style="ellipse;whiteSpace=wrap;html=1;fillColor=#d5e8d4;strokeColor=#82b366;strokeWidth=2;" vertex="1" parent="1">
          <mxGeometry x="400" y="290.6" width="20" height="20" as="geometry" />
        </mxCell>
      </root>
    </mxGraphModel>
  </diagram>
  <diagram id="loOLULhYjmYHbEXt8M48" name="Page-8">
    <mxGraphModel dx="111" dy="62" grid="1" gridSize="5" guides="1" tooltips="1" connect="1" arrows="1" fold="1" page="1" pageScale="1" pageWidth="827" pageHeight="1169" math="0" shadow="0">
      <root>
        <mxCell id="0" />
        <mxCell id="1" parent="0" />
        <mxCell id="6YCOZQGLmDoHd2anfRTS-1" style="edgeStyle=orthogonalEdgeStyle;curved=1;rounded=0;orthogonalLoop=1;jettySize=auto;html=1;strokeColor=default;strokeWidth=2;align=center;verticalAlign=middle;fontFamily=Helvetica;fontSize=12;fontColor=default;labelBackgroundColor=default;endArrow=none;endFill=0;exitX=0.5;exitY=1;exitDx=0;exitDy=0;" edge="1" parent="1" source="6YCOZQGLmDoHd2anfRTS-3">
          <mxGeometry relative="1" as="geometry">
            <mxPoint x="410" y="322" as="targetPoint" />
            <mxPoint x="410" y="300" as="sourcePoint" />
          </mxGeometry>
        </mxCell>
        <mxCell id="6YCOZQGLmDoHd2anfRTS-2" style="edgeStyle=orthogonalEdgeStyle;rounded=1;orthogonalLoop=1;jettySize=auto;html=1;exitX=0.5;exitY=0;exitDx=0;exitDy=0;strokeColor=#b85450;strokeWidth=1;align=center;verticalAlign=middle;fontFamily=Helvetica;fontSize=12;fontColor=default;labelBackgroundColor=default;endArrow=none;endFill=0;curved=0;fillColor=#f8cecc;" edge="1" parent="1" source="6YCOZQGLmDoHd2anfRTS-3">
          <mxGeometry relative="1" as="geometry">
            <mxPoint x="410" y="275.0047796863331" as="targetPoint" />
            <Array as="points">
              <mxPoint x="410" y="288.6" />
              <mxPoint x="411" y="288.6" />
              <mxPoint x="411" y="286.6" />
              <mxPoint x="409" y="286.6" />
              <mxPoint x="409" y="284.6" />
              <mxPoint x="411" y="284.6" />
              <mxPoint x="411" y="282.6" />
              <mxPoint x="409" y="282.6" />
              <mxPoint x="409" y="280.6" />
              <mxPoint x="411" y="280.6" />
              <mxPoint x="411" y="278.6" />
              <mxPoint x="409" y="278.6" />
              <mxPoint x="410" y="277.6" />
            </Array>
          </mxGeometry>
        </mxCell>
        <mxCell id="6YCOZQGLmDoHd2anfRTS-3" value="" style="ellipse;whiteSpace=wrap;html=1;fillColor=#d5e8d4;strokeColor=#82b366;strokeWidth=2;" vertex="1" parent="1">
          <mxGeometry x="400" y="290.6" width="20" height="20" as="geometry" />
        </mxCell>
      </root>
    </mxGraphModel>
  </diagram>
</mxfile>
